Coordinates
version=1
nRows=8
nColumns=34
inDegrees=yes

Units are S.I. units (second, meters, Newtons, ...)
If the header above contains a line with 'inDegrees', this indicates whether rotational values are in degrees (yes) or radians (no).

endheader
time	pelvis_tilt	pelvis_list	pelvis_rotation	pelvis_tx	pelvis_ty	pelvis_tz	hip_flexion_r	hip_adduction_r	hip_rotation_r	knee_angle_r	ankle_angle_r	subtalar_angle_r	mtp_angle_r	hip_flexion_l	hip_adduction_l	hip_rotation_l	knee_angle_l	ankle_angle_l	subtalar_angle_l	mtp_angle_l	lumbar_extension	lumbar_bending	lumbar_rotation	arm_flex_r	arm_add_r	arm_rot_r	elbow_flex_r	pro_sup_r	arm_flex_l	arm_add_l	arm_rot_l	elbow_flex_l	pro_sup_l
      0.00000000	     -2.69803815	     -3.26079379	     -1.58000834	      1.80645245	      0.88538889	     -0.13503619	      9.53712128	     -5.10707370	     -4.96912332	     20.12653105	      5.83575228	     -7.91699898	      0.00000000	      2.92782822	     -8.97028252	    -10.19218477	      4.65808010	      5.69072054	     -2.24044637	      0.00000000	    -12.68854357	      1.15156325	     -4.17858352	     15.14648050	     -2.61844064	     32.65682569	     78.92305456	     95.71047583	      4.72952705	     -8.79196673	     24.66797378	     78.04312949	     86.56451543
      0.01666670	     -4.42132946	     -2.30206427	     -1.20025577	      1.80761597	      0.88294068	     -0.13564375	     11.44729791	     -6.01215631	     -4.92517076	     19.53470564	      9.61624033	     -3.66668784	      0.00000000	      5.28474307	     -7.58640400	    -10.55605219	      4.82085137	      6.25944171	     -0.07014209	      0.00000000	    -10.40226888	      0.46630421	     -4.50505603	     13.77277841	     -1.03909399	     29.80267497	     76.33052173	     95.03080519	      4.01917282	     -9.50929983	     23.84041996	     77.34536010	     86.05162878
      0.03333330	     -4.54526574	     -1.45791625	     -1.43426201	      1.80766930	      0.88248528	     -0.13529054	     11.35714957	     -6.94997653	     -5.50369573	     18.28490399	      9.67813138	     -3.03392534	      0.00000000	      4.81061091	     -6.77473857	    -11.39192769	      3.72543347	      5.32943163	      0.27080369	      0.00000000	    -10.31547746	     -0.46620152	     -3.99785682	     13.62948998	     -0.83918320	     29.97416974	     74.93296117	     94.80959053	      4.57011778	    -10.35580623	     23.90180905	     76.30813220	     85.67921968
      0.05000000	     -4.07836814	     -0.78647890	     -1.35980993	      1.80805292	      0.88363592	     -0.13646581	     10.46975276	     -7.73328399	     -5.77393153	     17.01997042	      9.73462894	     -2.78616548	      0.00000000	      3.62964748	     -5.89341221	    -11.24348634	      2.50504181	      4.77895348	     -0.11795201	      0.00000000	    -10.90495141	     -1.19916559	     -3.71358230	     13.49177006	     -0.92809193	     30.68730198	     74.23721916	     94.70291535	      5.35167091	    -11.15756427	     24.59322363	     75.47338094	     85.60787815
      0.06666670	     -3.68895529	     -0.37279410	     -1.32540420	      1.80904035	      0.88462969	     -0.13902876	      9.53563292	     -8.21627028	     -5.83017322	     15.65484660	      9.61039241	     -3.13579505	      0.00000000	      2.70368208	     -5.19357081	    -10.79109043	      1.56510636	      4.46908363	     -0.67048509	      0.00000000	    -11.45002485	     -1.46267427	     -3.57223235	     13.26440105	     -1.25069488	     31.89468000	     74.72191787	     94.63053032	      5.79227587	    -11.35975779	     25.75109671	     74.63671953	     85.82692948
      0.08333330	     -3.30687200	     -0.00528277	     -1.27075514	      1.80957601	      0.88613573	     -0.14085590	      8.50738566	     -8.61231439	     -5.69675275	     14.18117930	      9.27851805	     -3.68481453	      0.00000000	      1.94438021	     -4.59732829	    -10.23909569	      0.89973765	      4.11868921	     -1.08188253	      0.00000000	    -11.84946260	     -1.67593582	     -3.53551514	     12.90837645	     -1.57665006	     32.95423965	     75.69224737	     94.53343360	      6.00222025	    -11.25616233	     26.69360232	     73.84568117	     86.18591963
      0.10000000	     -3.13568037	      0.28422693	     -1.21792800	      1.80950678	      0.88692338	     -0.14091259	      7.67814591	     -8.90026398	     -5.58950935	     12.69279720	      8.83601252	     -4.23341250	      0.00000000	      1.46599354	     -4.14890802	     -9.71192682	      0.30572148	      3.81915264	     -1.23811530	      0.00000000	    -12.00609193	     -1.79188980	     -3.57018482	     12.57111384	     -1.78137625	     33.85555567	     76.71022247	     94.45726934	      5.91179193	    -11.06066709	     27.32260381	     73.20026654	     86.47882746
      0.11666670	     -3.10174366	      0.63567278	     -1.24296102	      1.80889777	      0.88618413	     -0.13996721	      7.12042871	     -9.17222893	     -5.35497150	     11.46867505	      8.81777880	     -4.31451359	      0.00000000	      1.44599198	     -3.75649476	     -9.53753266	      0.29431822	      3.70136169	     -1.30132723	      0.00000000	    -11.89157841	     -2.10070915	     -3.56857372	     12.28783367	     -1.74174376	     34.26121143	     77.06975225	     94.44712639	      5.66052043	    -10.82606865	     27.57237435	     73.00078278	     86.55254956
